<svg xmlns="http://www.w3.org/2000/svg" width="43" height="69" fill="none">
  <path fill="#d1d5db" d="M31.79 67.669c7.87 3.047 11.07.16 11.07-1.662-2.788-.235-9.45-.617-11.07 1.661m-9.99-2.492a10.23 10.23 0 0 0 13.21-.927c-2.686-.746-10.019-1.63-13.21.927m13.314-5.923c-.299 3.791 3.584 5.923 7.776 6.23-.764-3.813-4.679-5.515-7.776-6.23m-7.518-3.494c-.444 1.62.166 6.02 6.197 7.765-.259-2.971-1.838-6.839-6.197-7.765m-11.96 4.41a9.334 9.334 0 0 0 11.908 1.065c-2.417-1.246-8.22-2.928-11.907-1.065m6.373-8.776c-.826 1.596-1.001 6.145 4.338 8.882.31-2.928-.867-7.935-4.338-8.882M8.8 53.162a8.19 8.19 0 0 0 4.955 4.134 7.91 7.91 0 0 0 6.322-.82c-3.366-3.165-8.737-4.38-11.277-3.314m7.982-8.48c-2.395 4.177.136 8.948 2.77 10.908 1.17-3.883.096-8.114-2.768-10.908zm-12.424-.18c-.289 6.487 6.486 6.135 9.668 6.178-1.002-1.364-6.568-6.306-9.668-6.179m8.355-6.062c-1.259 1.386-3.148 6.712 1.035 11.057 1.31-3.142 1.598-7.966-1.035-11.056M.808 35.566c-.217 5.24 4.194 7.892 8.447 7.85-1.279-2.524-4.7-7.391-8.447-7.85m8.923-3.61c-2.82 1.66-2.499 7.019-.836 9.809 1.869-2.598 3.264-5.826.836-9.81m-9.11-4.91c-1.395 4.772 2.704 8 5.164 8.276-.63-2.28-1.457-6.317-5.166-8.277zm8.591-1.588c-3.108 1.557-4.582 5.282-3.418 8.638 2.169-1.747 4.782-5.443 3.418-8.638M.476 19.684c-1.921 5.805 2.49 7.701 4.13 8.168-.196-2.47-1.766-7.39-4.13-8.168m8.613-1.524c-1.26.364-4.854 3.314-4.203 8.597 2.365-1.331 5.237-3.868 4.203-8.597m-7.312-7.273C-.37 18.022 3.213 20.952 4.39 21.535c.186-2.256.414-7.528-2.613-10.648m7.952.18c-2.25.628-5.091 4.76-4.957 8.734 2.23-1.022 5.567-5.272 4.957-8.735M9.058 0C3.832 5.4 3.099 9.66 4.627 14.912 6.993 12.782 8.882 6.39 9.057 0"></path>
</svg>